<svg version="1.2" xmlns="http://www.w3.org/2000/svg" viewBox="0 0 1500 500" width="1500" height="500">
	<title>New Project</title>
	<defs>
		<linearGradient id="g1" x2="1" gradientUnits="userSpaceOnUse" gradientTransform="matrix(276.709,965,-2275.837,652.586,613.145,-233)">
			<stop offset="-0.029" stop-color="#000000"/>
			<stop offset="0" stop-color="#000000"/>
			<stop offset=".255" stop-color="#06081c"/>
			<stop offset=".397" stop-color="#06081c"/>
			<stop offset=".466" stop-color="#070b2a"/>
			<stop offset=".7" stop-color="#101e8d"/>
			<stop offset="1" stop-color="#101e8d"/>
		</linearGradient>
	</defs>
	<style>
		.s0 { fill: url(#g1) } 
	</style>
	<path id="BlackHatagem" class="s0" aria-label="BlackHatagem"  d="m138.1 247.1h3.8c-0.3-1.4-0.2-2.9 0.1-4.3 0.6-2.4 2.1-4.5 4.2-5.8 1.1-0.6 2.3-1 3.5-1.2 1.2-0.2 2.4-0.2 3.6-0.2 2.1 0 4.1 0 6.2 0 0 4.5 0 9 0 13.5 0 5.3 0.1 10.6-0.5 15.8-0.7 5.3-2.2 10.5-5.4 14.7-1.8 2.2-3.9 4.1-6.4 5.5l1.9 4.8c11.9-2.9 23.1-9.5 30.2-19.5 2.2-3.2 3.9-6.8 4.9-10.6 0.9-3.8 1.1-7.7 1.1-11.6v-20.4-29.3c0-2.8 0-5.7 1.1-8.3 0.6-1.3 1.4-2.6 2.3-3.6 0.9-1.1 2.1-2 3.2-2.8l29.5-23.2 1.3-4.4c-2.3 1.4-4.8 2.5-7.5 3.3-3.8 1.2-7.8 1.7-11.8 1.5-4.5-0.2-8.9-1.1-13.3-2.1-4.3-0.9-8.7-1.7-13.2-1.6-5.7 0.1-11.3 1.7-16.1 4.4-8.4 4.7-14.5 12.2-17.9 20.5h4.7c0.6-2.2 2-4.2 3.8-5.6 1.9-1.5 4.2-2.5 6.7-3 4.1-0.8 8.4 0 12.4 1.2 4 1.1 7.9 2.5 12.1 3 1.9 0.2 3.9 0.3 5.8 0.1-5.6 3.6-11.3 7.2-16.9 10.8-3.4 2.1-6.9 4.4-9.2 7.7-1.2 1.7-2 3.6-2.4 5.6-0.4 1.9-0.5 4-0.5 6v5.2c-4.3 0.6-8.7 1.3-12.6 3.1-2.9 1.4-5.4 3.3-7.3 5.7-1.9 2.4-3.3 5.3-3.9 8.3-1.3 5.7-0.4 11.8 2.5 16.8zm85.4 62.7l66.8-34.6v-50.2c-4.6-3.8-9.6-7.2-14.8-10-4-2.2-8.2-4.1-12.5-5.6l24.9-17.5-32.4-37.9c-12.1 4-23.6 9.8-33.9 17.2-10.1 7.2-19.2 15.9-26.8 25.7v62.5c0 2.3-0.1 4.5-0.5 6.7-0.3 2.3-1 4.4-1.9 6.5-0.9 1.9-1.9 3.7-3.1 5.3-21.2 4.6-40.1 18.7-50.9 37.5h4.8c4.4-4.2 9.5-7.7 15.1-10.2 6.2-2.8 12.9-4.4 19.7-5 15.6-1.4 31.5 2.3 45.5 9.6zm11.5-26v-6.2l29.1-14.7v22.1l-16.3 7.6c-3.9-3.4-8.2-6.4-12.8-8.8zm0-60.3c5.9 2 11.6 4.6 17.1 7.7 3.1 1.8 6.2 3.7 9.2 5.8l-26.3 13.2zm-5.8 57.7c-0.8-0.3-1.6-0.6-2.4-0.9-8.7-3.1-18.1-4.3-27.3-3.7 2.2-1.9 4.3-3.8 6.5-5.7 4.6-4.1 9-8.5 11.9-14 1.4-2.7 2.4-5.7 2.9-8.7 0.5-3.1 0.6-6.1 0.6-9.2v-11.2-41.2c0.3-3.4 1.5-6.7 3.4-9.6 1.2-1.9 2.7-3.5 4.4-4.9 0 36.4 0 72.7 0 109.1zm5.8-24.5l29.1-14.7v14.6l-29.1 14.7zm0-85.8l26.6 31.3-26.6 19.9c0-17.1 0-34.1 0-51.2zm101.5 114.2v-129.4h-3.9l-32.6 23v2.9c1.6 0.5 3.2 1.1 4.6 1.9 1.4 0.7 2.7 1.6 3.6 2.9 0.6 0.8 1 1.8 1.2 2.7 0.2 1 0.2 2 0.2 3v91.1l-13.4 8.6 2.9 3.9 7.6-4.8 21.1 18.2 25-17.3-2.9-3.8-5.8 4.8zm114.4 1.9l-8.6 5.8-9.6-9.6v-50.5l10.4-8.4-3.5-4.4-8.1 6.6-29.5-19.1-22.1 11.5c-2.3 1.3-4.6 2.6-6.6 4.3-1.8 1.6-3.4 3.6-4.5 5.8-1 2.2-1.5 4.7-1.3 7.2 0.2 2.7 1.1 5.2 2.5 7.5 2.7 4.2 7.1 7.2 11.6 9.4 1 0.5 2 0.9 3 1.3-4.7 2.5-9.1 5.4-13.1 8.9-2.8 2.5-5.4 5.3-7.4 8.5-1.9 3.2-3.2 6.9-3.4 10.7-0.3 5.8 1.9 11.6 5.6 16 5.2 6.4 13.1 10.4 21.3 11.5l21.1-15.3 15.3 15.3 27.8-19.1zm-43.1-31.1c-3.6-0.9-7.2-1.9-10.8-3-3.8-1.2-7.6-2.5-11.1-4.2-3.6-1.7-7.1-3.9-9.6-6.9-1.8-2.2-3-4.8-3-7.6-0.1-2 0.5-3.9 1.5-5.7 0.9-1.7 2.3-3.2 3.9-4.4 1.3-0.9 2.7-1.7 4.2-2.3l24.9 15.3c0 6.3 0 12.5 0 18.8zm0 5.7c0 10.2 0 20.3 0 30.5-2.2 0.7-4.5 0.8-6.7 0.4-2.8-0.5-5.4-1.9-7.6-3.8-2.2-2-3.9-4.3-5.2-6.9-2.9-5.4-4.2-11.7-3.2-17.7 0.4-3 1.5-5.9 3.1-8.4 2.5 0.9 5.2 1.6 7.8 2.4 3.9 1.2 7.9 2.3 11.8 3.5zm87.5 22.8c3.9 2.2 8.3 3.5 12.7 3.6l11.6-8.4 2.6 3.5-29.5 25.9h-2.8l-30.2-20.6v-59.8l41.3-23 21.2 17-19 14.4-17.8-14.8v52c2.3 4.2 5.8 7.7 9.9 10.2zm67.1 0.6v-129.4h-3.9l-32.5 23v2.9c1.5 0.5 3.1 1.1 4.6 1.9 1.3 0.7 2.6 1.7 3.5 2.9 0.6 0.8 1 1.8 1.2 2.8 0.2 0.9 0.2 1.9 0.2 2.9v91.1l-13.4 8.6 2.9 3.9 7.7-4.8 21.1 18.2 24.9-17.3-2.9-3.8-5.7 4.8zm70 1l-8.7 5.7-39.3-58.5 2-3.8c2.8 2.6 6.2 4.6 9.9 5.7 3.1 0.9 6.3 1.2 9.5 0.8 3.2-0.4 6.3-1.6 8.9-3.4 2.8-1.9 5.2-4.5 6.9-7.4 1.8-2.9 3.1-6 4.1-9.3 0.8-2.7 1.5-5.6 1.9-8.5h-3.9c-1.2 2.3-3 4.2-5.2 5.5-2.1 1.4-4.7 2.1-7.2 2.2-2.7 0.1-5.5-0.6-7.8-1.9-2.4-1.4-4.3-3.4-5.6-5.8h-2l-29.7 46.1 39.3 57.5 30.7-20.1zm69.4-126.7zm-16.8 31.9zm-37.6-5.6c1.3-2.2 3.2-4.1 5.3-5.4 2.2-1.3 4.6-2.2 7.1-2.5 1.8-0.3 3.6-0.3 5.4-0.2 3.8 0.2 7.6 0.9 11.4 1.3 3.7 0.4 7.6 0.5 11.3-0.3 5.3-1 10.2-3.7 14.4-7.1 4.2-3.5 7.8-7.6 11.4-11.6 0.8-0.8 1.6-1.7 2.4-2.6l-3.9-1.9c-3.2 2-6.7 3.3-10.4 4-3.8 0.6-7.7 0.5-11.6 0.1-3.8-0.4-7.6-1.1-11.4-1.3-3.5-0.3-7.1-0.2-10.5 0.5-3.4 0.7-6.8 2-9.7 3.9-4.1 2.7-7.4 6.4-10 10.5-2.1 3.3-3.8 6.9-5 10.7zm17.4 94.6v5c7.8-0.8 15.6-3.1 22.2-7.4 4.9-3.1 9.1-7.4 11.6-12.7 1.2-2.6 2-5.4 2.4-8.3 0.4-2.9 0.5-5.8 0.5-8.7v-29-15.6c0-5.8 0-11.6 1.8-17.1 0.9-2.7 2.2-5.3 3.8-7.7 1.1-1.5 2.3-2.9 3.5-4.3 0 37.7 0 75.5 0 113.2-11.8-4-25.1-4.1-36.9 0.1-13.6 4.8-25.2 15.1-31.6 28.1h6.1c7.7-8.2 19.1-12.8 30.4-12.3 7.5 0.3 14.9 2.9 21 7.2l19.9-19.1c-1-0.6-2.1-1.2-3.2-1.7 0-16.5 0-33.1 0-49.6h27.4v44.4l-10.3 8 2.3 2.9 4.8-3.7 19.4 17.6 26.5-22.4-2.9-2.9-6.2 5.3-5.7-6.4v-108.3l7.5-6.1-3.5-4.4-5.9 4.8-15.1-12.4-23.2 18.8 0.1 5.6 6.9-5.3 5.4 5.1v36h-27.5c0-16.2 0-32.3 0-48.5h-5.7l-5.1 5.8c-2.9 3.3-6.1 6.5-9.6 9.2-3.6 2.7-7.4 4.9-10.8 7.7-3.2 2.6-6 5.8-7.6 9.6-1.6 3.7-1.8 7.9-1.8 12v5c-4 0.6-7.9 1.3-11.5 3-2.8 1.3-5.3 3.2-7.2 5.7-2 2.4-3.3 5.3-4 8.3-1.2 5.6-0.3 11.7 2.5 16.8h3.9c-0.3-1.5-0.3-2.9 0.1-4.4 0.6-2.3 2.1-4.5 4.2-5.7 1.1-0.7 2.2-1.1 3.5-1.3 1.2-0.2 2.4-0.2 3.6-0.2h4.9c0 0.2 0 0.4 0 0.5 0 5.9 0.3 11.8 0.2 17.6-0.1 3-0.4 5.9-1.1 8.7-0.7 2.9-1.9 5.6-3.6 8-1.7 2.3-3.9 4.2-6.4 5.5zm219.7 6.7l-8.6 5.7-9.6-9.5v-50.5l10.4-8.4-3.5-4.4-8.1 6.6-29.5-19.1-22 11.5c-2.4 1.2-4.7 2.5-6.7 4.3-1.8 1.6-3.4 3.6-4.4 5.8-1.1 2.2-1.6 4.7-1.4 7.2 0.2 2.6 1.1 5.2 2.5 7.5 2.8 4.2 7.1 7.2 11.7 9.4 0.9 0.5 1.9 0.9 2.9 1.3-4.6 2.4-9.1 5.4-13.1 8.9-2.8 2.5-5.4 5.3-7.3 8.5-2 3.2-3.3 6.9-3.5 10.7-0.3 5.8 1.9 11.6 5.6 16 5.2 6.4 13.1 10.4 21.3 11.5l21.1-15.3 15.3 15.3 27.9-19.2zm-43.2-31.1c-3.6-0.8-7.2-1.8-10.8-2.9-3.8-1.2-7.5-2.5-11.1-4.2-3.6-1.7-7.1-3.9-9.6-7-1.8-2.1-2.9-4.7-3-7.5 0-2 0.5-3.9 1.5-5.7 0.9-1.7 2.3-3.2 3.9-4.4 1.3-1 2.7-1.8 4.2-2.4l24.9 15.4c0 6.2 0 12.5 0 18.7zm0 5.8c0 10.2 0 20.3 0 30.5-2.1 0.7-4.4 0.8-6.7 0.4-2.8-0.5-5.4-2-7.6-3.9-2.2-1.9-3.9-4.2-5.2-6.8-2.9-5.4-4.2-11.7-3.2-17.7 0.4-3 1.5-5.9 3.1-8.5 2.6 0.9 5.2 1.7 7.8 2.5 3.9 1.2 7.9 2.3 11.8 3.5zm84.2 23.4v-61.9h14.4l9.4-11h-23.8v-23h-3.8l-32.6 32.7v2.9c1.5-0.1 3.1 0.2 4.6 0.9 1.4 0.6 2.7 1.6 3.5 2.9 0.6 0.9 1 1.8 1.2 2.8 0.2 0.9 0.3 1.9 0.3 2.9v48.9l-13.5 8.6 2.9 3.9 7.7-4.8 21.1 18.2 27.5-14.3-2.9-3.8-6.6 3.6zm111 1.9l-8.7 5.8-9.6-9.6v-50.5l10.5-8.4-3.6-4.4-8 6.6-29.5-19.1-22.1 11.5c-2.3 1.3-4.6 2.6-6.6 4.3-1.9 1.6-3.5 3.6-4.5 5.8-1 2.3-1.5 4.7-1.4 7.2 0.2 2.7 1.2 5.2 2.6 7.5 2.7 4.2 7.1 7.2 11.6 9.4 1 0.5 2 0.9 3 1.3-4.7 2.5-9.2 5.4-13.1 8.9-2.9 2.5-5.4 5.3-7.4 8.5-1.9 3.3-3.2 6.9-3.4 10.7-0.4 5.8 1.8 11.6 5.5 16.1 5.3 6.3 13.2 10.4 21.4 11.4l21.1-15.3 15.3 15.3 27.8-19.1zm-43.1-31.1c-3.7-0.9-7.3-1.9-10.8-3-3.8-1.2-7.6-2.5-11.2-4.2-3.6-1.7-7.1-3.8-9.6-6.9-1.7-2.2-2.9-4.8-3-7.6 0-1.9 0.5-3.9 1.5-5.7 1-1.7 2.4-3.2 3.9-4.4 1.3-0.9 2.7-1.7 4.2-2.3l25 15.3c0 6.3 0 12.5 0 18.8zm0 5.8c0 10.1 0 20.2 0 30.4-2.2 0.7-4.5 0.8-6.7 0.4-2.8-0.5-5.5-1.9-7.6-3.8-2.2-1.9-3.9-4.3-5.3-6.9-2.8-5.4-4.1-11.7-3.2-17.7 0.5-3 1.6-5.9 3.1-8.4 2.6 0.9 5.2 1.6 7.8 2.4 4 1.2 7.9 2.4 11.9 3.6zm100.3 29l-22.9-14.3v-52.7l23 15.4-0.1 49.4c0 0.7 0 1.5 0 2.2zm0.4 5.5c0 0.1 0 0.2 0.1 0.4 0.4 2.6 1.2 5.2 2.3 7.7 1.3 2.7 2.8 5.4 3.8 8.2 0.5 1.4 0.8 2.9 0.9 4.4 0 1.6-0.2 3.1-0.8 4.5-0.6 1.3-1.5 2.4-2.6 3.3-1.2 0.8-2.5 1.4-4 1.6-6.6-7-16.2-10.9-25.8-10.6-6.7 0.3-13.3 2.5-18.7 6.4-5.4 3.9-9.7 9.4-12 15.7l2.9 1.9c5.6-4.3 13.2-6 20.1-4.5 6.2 1.3 11.9 5.2 15.4 10.5l37-26.1c1.6-1.2 3.3-2.2 5.1-3.2 1.7-1 3.5-1.9 5-3.3 1.6-1.4 2.7-3.2 3.3-5.3 0.5-1.9 0.4-3.9-0.1-5.8-0.5-2-1.5-3.7-2.4-5.5-1.2-2.3-2-4.8-2.4-7.4-0.5-2.6-0.5-5.3-0.5-7.9 0-16.9 0-33.9 0-50.8l9.5-7.8-3.5-4.3-8.5 6.9-26.3-19.7-45 25.9v57.5l28.7 20.1zm39.5-0.2l8.9-7.1 29.7 22 41.2-33.6-2.9-4.7-22 17.2-24-16.3v-8.6l43.1-26.9v-0.9l-20.1-30.7-47.9 24.9v52.7l-9.5 7.7zm30.9-36v-36.1l3.8-2.2 17.3 24.9zm148.9 34.2l-10.4-9.3v-53.5l10.5-6.4 13.9 12.7v49.2l-8.4 7.7 19.8 17.3 29.7-19.3-0.2-7.3-8.6 6.5-9.3-9.6v-50.2l9.9-8-3.6-4.4-6.5 5.3-20.7-17.9-27.5 17.1-19.9-17.1-26.3 16.4-14.7-16.4-27.8 19.1 2.8 3.9 7.7-4.8 7.7 8.6v53.1l-7.7 6.8 23 18.2 19.2-17.3-8.6-7.7v-56.6l8.7-5.3 13.9 12.7v49.2l-8.4 7.7 19.8 17.3z"/>
</svg>